<svg width="53" height="60" viewBox="0 0 53 60" fill="none" xmlns="http://www.w3.org/2000/svg">
<g clip-path="url(#clip0_8_179)">
<path d="M26.9795 17.9046H32.9541C34.1193 17.9046 35.2731 17.6753 36.3497 17.23C37.4262 16.7846 38.4044 16.1318 39.2283 15.3088C40.0523 14.4859 40.7059 13.5089 41.1518 12.4337C41.5977 11.3584 41.8272 10.206 41.8272 9.04219V0H35.8526" fill="#CEC4A5"/>
<path d="M14.849 0H8.87313C6.51983 0 4.26291 0.933712 2.59888 2.59573C0.934845 4.25775 0 6.51193 0 8.86238L0 17.9046H5.97586" fill="#41201F"/>
<path d="M21.0037 17.9046H26.9795C28.1448 17.9046 29.2986 17.6753 30.3751 17.23C31.4517 16.7846 32.4298 16.1318 33.2538 15.3088C34.0777 14.4859 34.7313 13.5089 35.1772 12.4337C35.6231 11.3584 35.8526 10.206 35.8526 9.04219V0H29.8768" fill="#EE2937"/>
<path d="M20.8248 0H14.849C12.4957 0 10.2387 0.933712 8.57471 2.59573C6.91067 4.25775 5.97583 6.51193 5.97583 8.86238V17.9046H11.9504" fill="#802729"/>
<path d="M11.9504 8.86238V17.9046H21.0036C22.1688 17.9046 23.3227 17.6753 24.3992 17.23C25.4757 16.7846 26.4539 16.1318 27.2778 15.3088C28.1018 14.4859 28.7554 13.5089 29.2013 12.4337C29.6472 11.3584 29.8767 10.206 29.8767 9.04219V9.31055e-08H20.8249C19.6595 -0.000168615 18.5055 0.228939 17.4289 0.67424C16.3522 1.11954 15.3739 1.77231 14.5498 2.59528C13.7257 3.41824 13.072 4.39528 12.626 5.4706C12.18 6.54591 11.9504 7.69845 11.9504 8.86238Z" fill="#B22029"/>
<path d="M3.7398 31.3132C2.80485 31.3132 2.2205 30.7587 2.19129 29.9124H0C0.0584343 31.8968 1.72381 33.4143 3.68136 33.3559H3.71058C5.72656 33.3559 7.3335 31.7509 7.36272 29.7374C7.36272 28.1032 6.45699 27.0526 4.41179 26.3523C2.86328 25.827 2.51267 25.5352 2.51267 24.8056C2.51267 24.7473 2.51267 24.6889 2.51267 24.6306C2.57111 24.0469 3.09702 23.6092 3.68136 23.6676H3.7398C4.38257 23.6676 4.90848 24.1636 4.90848 24.8056H7.07055C7.04133 23.0256 5.55126 21.5956 3.7398 21.6248C1.95755 21.5957 0.467474 23.0256 0.40904 24.8056C0.40904 25.6519 0.759646 26.469 1.37321 27.0818C1.84068 27.5487 2.10364 27.6655 3.7398 28.2783C4.85005 28.6868 5.25909 29.0954 5.25909 29.9416C5.25909 30.7879 4.67474 31.3132 3.7398 31.3132Z" fill="white"/>
<path d="M13.4984 42.198C13.4691 44.6784 15.4851 46.7211 17.9978 46.7503C20.4813 46.7795 22.5265 44.766 22.5557 42.2563C22.5557 42.2272 22.5557 42.2272 22.5557 42.198C22.5849 39.7175 20.5689 37.704 18.1147 37.704C18.0855 37.704 18.0855 37.704 18.0562 37.704C15.5436 37.704 13.4984 39.7175 13.4984 42.198L13.4984 42.198ZM15.5436 42.2272C15.5436 40.8556 16.683 39.7467 18.0562 39.7759C19.4294 39.8051 20.5397 40.914 20.5105 42.2855C20.5397 43.6571 19.4587 44.766 18.1147 44.7951C18.0855 44.7951 18.0855 44.7951 18.0562 44.7951C16.683 44.7951 15.5728 43.7154 15.5436 42.3439C15.5436 42.2855 15.5436 42.2563 15.5436 42.2272H15.5436Z" fill="white"/>
<path d="M5.84343 54.2501C5.31752 53.8415 5.08378 53.754 3.73979 53.3454C2.0452 52.8785 1.51929 52.3824 1.51929 51.3319V51.3027C1.51929 50.223 2.39581 49.3767 3.47684 49.3767C4.61631 49.3767 5.43439 50.1646 5.52204 51.3611H6.71994C6.71994 51.3319 6.71994 51.3027 6.71994 51.2735C6.66151 49.581 5.25909 48.2678 3.56449 48.297C1.75303 48.297 0.379823 49.581 0.379823 51.3027C0.350606 52.0614 0.642777 52.791 1.1979 53.3162C1.66538 53.7832 2.16207 54.0166 3.33075 54.3084C5.113 54.7462 5.87265 55.4757 5.87265 56.6721C5.84343 57.927 4.82083 58.9191 3.56449 58.9191C2.27894 58.9191 1.40242 58.0729 1.25634 56.643H0C0.0876514 58.6565 1.49007 59.9989 3.50606 59.9989C5.37596 60.028 6.92446 58.569 6.95368 56.7013C6.95368 55.7675 6.54464 54.8629 5.84343 54.2501V54.2501Z" fill="white"/>
<path d="M18.845 56.0593C18.845 57.8102 17.8224 58.9483 16.2739 58.9483C14.6669 58.9483 13.7028 57.8686 13.7028 56.0593V51.4486H12.5925V56.0593C12.5925 57.2266 12.797 58.0437 13.2937 58.6857C13.9657 59.532 15.0176 60.0281 16.1278 59.9989C17.4426 59.9989 18.3775 59.5028 18.9034 58.5106V59.7946H19.9845V51.4194H18.845V56.0593Z" fill="white"/>
<path d="M28.4282 52.7618C27.6393 51.7696 26.4414 51.2151 25.1851 51.2443C22.76 51.2443 20.8025 53.1995 20.8025 55.5924C20.8025 58.0145 22.76 59.9697 25.1851 59.9988C26.6167 59.9988 27.5517 59.5319 28.545 58.2771V59.7946H29.5969V48.5012H28.4574V52.7618H28.4282ZM25.1558 58.9191C23.3444 58.8899 21.8835 57.4017 21.9127 55.5632C21.9127 53.7831 23.3444 52.324 25.1266 52.2948C26.9673 52.2657 28.4574 53.7539 28.4866 55.5632C28.4574 57.4308 26.9965 58.8899 25.1558 58.9191Z" fill="white"/>
<path d="M30.678 48.5012H31.7882V50.398H30.678V48.5012Z" fill="white"/>
<path d="M30.678 51.4486H31.7882V59.8238H30.678V51.4486Z" fill="white"/>
<path d="M37.0181 51.2444C34.593 51.2444 32.6355 53.1996 32.6355 55.6216C32.6355 58.0437 34.593 59.9989 37.0181 59.9989C39.4431 59.9989 41.4006 58.0437 41.4006 55.6216C41.4006 53.1996 39.4431 51.2444 37.0181 51.2444ZM40.2612 55.5633C40.2904 57.4601 38.8587 58.9192 37.0473 58.9192C35.265 58.9192 33.8042 57.4601 33.8042 55.68C33.7165 53.8999 35.119 52.3825 36.9012 52.3241C38.6834 52.2366 40.2027 53.6373 40.2612 55.4174V55.5633Z" fill="white"/>
<path d="M10.1384 39.6592L10.9564 46.4585H13.0601L11.3363 35.1652H9.11575L6.51543 42.9567L3.94432 35.1652H1.72381L0 46.4877H2.10364L2.92172 39.6592C3.00937 39.1047 3.03858 38.5502 3.0678 37.9666L5.84343 46.4877H7.21664L9.99227 37.9958C10.0215 38.5502 10.0799 39.1339 10.1384 39.6592Z" fill="white"/>
<path d="M40.5826 44.766C39.2386 44.8244 38.0992 43.7447 38.0407 42.4023C38.0407 42.3439 38.0407 42.2856 38.0407 42.2272C38.0407 40.7681 39.0633 39.6884 40.4658 39.6884C41.1378 39.6592 41.8098 39.9802 42.2188 40.5055L43.6797 39.0464C42.8324 38.1709 41.6929 37.704 40.495 37.7332C38.0115 37.7916 36.0248 39.8635 36.1124 42.3731C36.1708 44.766 38.1284 46.7212 40.5242 46.7504C41.7221 46.7796 42.8908 46.2835 43.7089 45.4372L42.248 43.9781C41.8098 44.4742 41.1962 44.766 40.5826 44.766Z" fill="white"/>
<path d="M32.7524 37.9958H34.7976V46.4586H32.7524V37.9958Z" fill="white"/>
<path d="M12.2711 33.4143C13.0892 33.4143 13.9073 33.1516 14.55 32.6555C14.7253 32.5388 14.9006 32.4221 15.0759 32.3053V33.1808H17.1211V24.7181L15.2512 24.6889H15.0759V25.5644C14.3747 24.8348 13.4106 24.4263 12.388 24.3971C9.99216 24.3971 8.15148 26.3231 8.15148 28.8619C8.12227 31.4883 9.8753 33.4143 12.2711 33.4143V33.4143ZM12.6801 26.3814C14.0241 26.3523 15.1344 27.432 15.1636 28.7744V28.9203C15.1636 30.4085 14.1118 31.4883 12.6801 31.4883C11.2777 31.4883 10.1382 30.3502 10.1382 28.9494C10.1382 27.5195 11.2777 26.3814 12.6801 26.3814Z" fill="white"/>
<path d="M36.3169 33.4143C37.135 33.4143 37.953 33.1516 38.5958 32.6555C38.7711 32.5388 38.9464 32.4221 39.1217 32.2762V33.1516H41.1669V24.6889H39.297H39.1217V25.5644C38.4205 24.8348 37.4564 24.4263 36.4338 24.3971C34.0379 24.3971 32.1973 26.3231 32.1973 28.8619C32.1973 31.4883 33.9503 33.4143 36.3169 33.4143ZM36.7551 26.3815C38.0991 26.3523 39.2094 27.432 39.2386 28.7744V28.9203C39.2386 30.4085 38.1868 31.4883 36.7551 31.4883C35.3527 31.4883 34.2132 30.3502 34.2132 28.9494C34.2132 27.5195 35.3527 26.3815 36.7551 26.3815Z" fill="white"/>
<path d="M51.1593 37.9958H50.984V38.8713C50.2828 38.1417 49.3187 37.7332 48.2961 37.704C45.9003 37.704 44.0596 39.63 44.0596 42.1688C44.0596 44.7951 45.8126 46.7211 48.1792 46.7211C48.9973 46.7211 49.8154 46.4585 50.4581 45.9624C50.6334 45.8457 50.8087 45.729 50.9548 45.5831V46.4585H53V37.9958H51.1593ZM51.1301 42.2272C51.1301 43.6862 50.0783 44.7951 48.6467 44.7951C47.2442 44.7951 46.1048 43.6571 46.1048 42.2563C46.1048 40.8556 47.2442 39.7175 48.6467 39.7175C49.9907 39.6883 51.1009 40.7389 51.1301 42.0812V42.2272Z" fill="white"/>
<path d="M20.6857 29.1245C20.6857 28.0156 20.7733 27.5487 21.0363 27.1402C21.3577 26.6733 21.8836 26.3815 22.4679 26.3815C23.6366 26.3815 24.1917 27.2277 24.1917 28.9786V33.1516H26.2369V28.5701C26.2369 27.111 26.0324 26.3231 25.5065 25.6519C24.8637 24.864 23.8995 24.3971 22.8769 24.3971C22.0589 24.3971 21.2992 24.6889 20.7149 25.2725V24.6889H18.6697V33.1516H20.7149V29.1245H20.6857Z" fill="white"/>
<path d="M31.2333 46.4877V41.9061C31.204 40.4471 30.9995 39.6883 30.4736 38.988C29.8308 38.2001 28.8667 37.7332 27.8441 37.7332C27.026 37.7332 26.2663 38.025 25.682 38.6086V38.025H23.666V46.4877H25.7112V42.4314C25.7112 41.3225 25.7989 40.8556 26.0618 40.4471C26.3832 39.9801 26.9091 39.6883 27.4642 39.6883C28.6329 39.6883 29.1881 40.5346 29.1881 42.2855V46.4585H31.2333V46.4877Z" fill="white"/>
<path d="M31.1455 33.1517V31.2841C30.1229 31.3425 29.6263 30.9339 29.6263 29.825V26.4983H31.2624V24.689H29.6263V21.8584H27.5811V29.825C27.5811 32.0136 28.8082 33.4144 31.1455 33.1517Z" fill="white"/>
<path d="M8.99892 48.5305H7.88867V56.4971C7.88867 58.6858 9.11579 60.0865 11.4532 59.8239V58.8025C10.4306 58.8609 8.99892 58.5982 8.99892 56.4971V52.4409H11.5408V51.4195H8.96971V48.5305H8.99892Z" fill="white"/>
<path d="M39.7644 50.4273V49.4059H40.0566V49.2892H39.3262V49.4059H39.6476V50.4273H39.7644Z" fill="white"/>
<path d="M41.167 50.4273H41.2838L41.1377 49.2892H41.0209L40.6995 50.1355V50.1938L40.6703 50.1355L40.3489 49.2892H40.232L40.0859 50.4273H40.2028L40.2905 49.5518C40.2905 49.5226 40.2905 49.4935 40.2905 49.4935C40.2905 49.5226 40.2905 49.5518 40.3197 49.5518L40.6411 50.4273H40.6995L41.0209 49.5518L41.0501 49.4935V49.5518L41.167 50.4273Z" fill="white"/>
<path d="M34.7976 36.1282V35.1068H33.775C33.2199 35.1068 32.7817 35.5445 32.7524 36.1282V37.1495H33.775C34.3302 37.1204 34.7976 36.6826 34.7976 36.1282Z" fill="white"/>
</g>
<defs>
<clipPath id="clip0_8_179">
<rect width="53" height="60" fill="white"/>
</clipPath>
</defs>
</svg>
